# xmcd
# Copyright (C) 1995-1998 Ti Kan
#
# Track frame offsets:
#       150
#       12786
#       33935
#       49658
#       57437
#       78236
#       95294
#       115663
#       135167
#       144004
#       150031
#       158407
#       159312
#       164214
#       168007
#       182361
#       212764
#       235336
#
# Disc length: 4395 seconds
#
# Revision: 0
# Processed by: cddbd v1.5.2PL0 Copyright (c) Steve Scherf et al.
# Submitted via: CD-Transfer v1.0
#
DISCID=c2112912
DTITLE=Ärtonwall - Naive Needs
DYEAR=06
DGENRE=
TTITLE0=Seppuku
TTITLE1=Pickup
TTITLE2=Pay The Price
TTITLE3=Sofia Coppola
TTITLE4=Perfect Way
TTITLE5=Real Damage, The Plankton
TTITLE6=Smalltown Boy
TTITLE7=Trixxy Trick
TTITLE8=Great Escape
TTITLE9=Marshall's Dead
TTITLE10=Never Watch The Sky
TTITLE11=Phroq
TTITLE12=Stern Mistress
TTITLE13=Sleepy T.v
TTITLE14=Money Sharks
TTITLE15=Fake I.d
TTITLE16=Hygienic Garden
TTITLE17=Data Track
EXTD=
EXTT0=
EXTT1=
EXTT2=
EXTT3=
EXTT4=
EXTT5=
EXTT6=
EXTT7=
EXTT8=
EXTT9=
EXTT10=
EXTT11=
EXTT12=
EXTT13=
EXTT14=
EXTT15=
EXTT16=
EXTT17=
PLAYORDER=
